<svg width="53" height="54" viewBox="0 0 53 54" fill="none" xmlns="http://www.w3.org/2000/svg">
<path d="M11.0415 38.0417C11.0415 29.5043 17.9624 22.5834 26.4998 22.5834C35.0373 22.5834 41.9582 29.5043 41.9582 38.0417C41.9582 38.2294 41.9545 38.4164 41.9471 38.6026C41.8478 41.4194 40.3152 43.5316 38.2449 44.8897C36.2044 46.2291 33.6029 46.875 31.1031 46.875H21.8966C19.3967 46.875 16.7953 46.2291 14.7548 44.8897C12.6845 43.5316 11.1519 41.4194 11.0514 38.6026C11.0448 38.4164 11.0415 38.2294 11.0415 38.0417Z" fill="#17803D"/>
<path d="M20.151 7.125C17.0152 7.125 14.9062 10.1063 14.9062 13.1979C14.9062 16.2896 17.0152 19.2708 20.151 19.2708C23.2869 19.2708 25.3958 16.2896 25.3958 13.1979C25.3958 10.1063 23.2869 7.125 20.151 7.125ZM3.3125 19.8229C3.3125 16.7313 5.42146 13.75 8.55729 13.75C11.6931 13.75 13.8021 16.7313 13.8021 19.8229C13.8021 22.9146 11.6931 25.8958 8.55729 25.8958C5.42146 25.8958 3.3125 22.9146 3.3125 19.8229ZM28.1562 13.1979C28.1562 10.1063 30.2652 7.125 33.401 7.125C36.5369 7.125 38.6458 10.1063 38.6458 13.1979C38.6458 16.2896 36.5369 19.2708 33.401 19.2708C30.2652 19.2708 28.1562 16.2896 28.1562 13.1979ZM39.1979 19.8229C39.1979 16.7313 41.3069 13.75 44.4427 13.75C47.5785 13.75 49.6875 16.7313 49.6875 19.8229C49.6875 22.9146 47.5785 25.8958 44.4427 25.8958C41.3069 25.8958 39.1979 22.9146 39.1979 19.8229Z" fill="#17803D"/>
</svg>
